<svg width="1440" height="337" viewBox="0 0 1440 337" fill="none" xmlns="http://www.w3.org/2000/svg">
<g opacity="0.4">
<path fill-rule="evenodd" clip-rule="evenodd" d="M672.685 12.4561C672.065 14.9241 671.924 14.9561 661.543 14.9561C651.68 14.9561 651.113 14.8481 652.384 13.2061C653.672 11.5431 653.638 11.542 651.697 13.189C649.766 14.827 624.417 14.92 186.835 14.902C-67.716 14.891 -276.227 15.1241 -276.522 15.4191C-277.062 15.9591 -230.437 16.0031 324.073 15.9951C562.621 15.9911 625.226 16.2471 624.676 17.2231C624.14 18.1731 624.29 18.1691 625.327 17.2061C626.243 16.3561 630.212 15.9711 637.724 16.0021L648.774 16.0491L640.774 23.4891L632.774 30.9291L617.274 30.902C602.963 30.878 601.985 30.761 604.524 29.384C608.808 27.06 607.755 26.67 603.314 28.936C599.764 30.747 597.46 30.954 581.064 30.941C567.714 30.93 563.179 30.6341 564.274 29.8461C565.45 29.0001 565.342 28.9501 563.774 29.6121C562.674 30.0761 376.149 30.5581 149.274 30.6821C-77.601 30.8071 -266.376 31.0301 -270.226 31.1771C-274.076 31.3251 -208.376 31.674 -124.226 31.951L28.774 32.4561L-117.726 43.2911C-286.238 55.7541 -276.726 54.9881 -276.726 56.1011C-276.726 56.5711 -208.663 57.0021 -125.476 57.0591L25.774 57.1611L-123.726 74.004C-205.951 83.268 -274.014 90.872 -274.976 90.902C-275.938 90.931 -276.726 91.5191 -276.726 92.2061C-276.726 93.2011 -245.712 93.4171 -124.476 93.2631C-35.65 93.1511 26.941 93.4391 25.774 93.9551C24.674 94.4411 -42.601 105.9 -123.726 119.419C-204.851 132.938 -272.464 144.25 -273.976 144.557C-275.826 144.932 -276.726 145.743 -276.726 147.032C-276.726 148.913 -273.789 148.954 -124.883 149.203L26.96 149.456L-121.633 186.88C-203.359 207.463 -271.689 224.697 -273.476 225.177C-276.212 225.912 -276.726 226.517 -276.726 229.003V231.956L-124.476 231.997L27.774 232.038L13.774 237.387C-3.06604 243.821 -64.047 266.914 -185.976 313.03L-276.726 347.354V351.652V355.949L-127.779 356.203L21.168 356.456L38.909 355.948L160.722 356.202L282.534 356.456L299.774 356.036L421.999 355.996L544.224 355.956L560.89 356.456H683.273H805.657L822.324 355.956L944.549 355.996L1067 356.456H1084.01L1205.83 356.202L1327.64 355.948L1345.38 356.456L1494.33 356.203L1643.27 355.949V351.595V347.241L1631.02 342.718C1624.29 340.23 1582.32 324.383 1537.77 307.502C1493.22 290.621 1436.52 269.142 1411.77 259.772C1387.02 250.402 1360.47 240.329 1352.77 237.387L1338.77 232.038L1491.02 231.997L1643.27 231.956V229.003C1643.27 226.517 1642.76 225.912 1640.02 225.177C1638.24 224.697 1569.91 207.463 1488.18 186.88L1339.59 149.456L1491.43 149.203C1640.34 148.954 1643.27 148.913 1643.27 147.032C1643.27 145.743 1642.37 144.932 1640.52 144.557C1639.01 144.25 1571.4 132.938 1490.27 119.419C1409.15 105.9 1341.87 94.4411 1340.77 93.9551C1339.61 93.4391 1402.2 93.1511 1491.02 93.2631C1612.26 93.4171 1643.27 93.2011 1643.27 92.2061C1643.27 91.5191 1642.49 90.931 1641.52 90.902C1640.56 90.872 1572.5 83.268 1490.27 74.004L1340.77 57.1611L1492.02 57.0591C1575.21 57.0021 1643.27 56.5711 1643.27 56.1011C1643.27 54.9881 1652.79 55.7541 1484.27 43.2911L1337.77 32.4561L1490.77 31.951C1574.92 31.674 1640.62 31.3251 1636.77 31.1771C1632.92 31.0301 1444.15 30.8071 1217.27 30.6821C990.399 30.5581 803.874 30.0761 802.774 29.6121C801.206 28.9501 801.098 29.0001 802.274 29.8461C803.369 30.6341 798.834 30.93 785.484 30.941C769.088 30.954 766.784 30.747 763.234 28.936C758.793 26.67 757.74 27.06 762.024 29.384C764.563 30.761 763.585 30.878 749.274 30.902L733.774 30.9291L725.774 23.4891L717.774 16.0491L728.824 16.0021C736.336 15.9711 740.305 16.3561 741.221 17.2061C742.258 18.1691 742.408 18.1731 741.872 17.2231C741.322 16.2471 803.927 15.9911 1042.48 15.9951C1596.99 16.0031 1643.61 15.9591 1643.07 15.4191C1642.78 15.1241 1434.26 14.891 1179.71 14.902C742.131 14.92 716.782 14.827 714.851 13.189C712.91 11.542 712.876 11.5431 714.164 13.2061C715.435 14.8471 714.872 14.9561 705.089 14.9561C694.663 14.9561 694.66 14.9551 693.489 12.2061L692.318 9.45605L692.815 12.2061L693.312 14.9561H683.274H673.236L673.863 12.4561C674.208 11.0811 674.226 9.95605 673.901 9.95605C673.577 9.95605 673.03 11.0811 672.685 12.4561ZM668.339 24.2471C669.678 20.5571 670.924 17.1821 671.107 16.7471C671.291 16.3121 666.554 15.9561 660.582 15.9561H649.724L642.274 23.4561L634.824 30.9561H650.364H665.904L668.339 24.2471ZM698.274 30.277C698.274 29.903 697.285 26.528 696.077 22.777L693.88 15.9561H683.274H672.668L670.471 22.777C669.263 26.528 668.274 29.903 668.274 30.277C668.274 30.65 675.024 30.9561 683.274 30.9561C691.524 30.9561 698.274 30.65 698.274 30.277ZM731.724 30.9561L724.274 23.4561L716.824 15.9561H705.966C699.994 15.9561 695.257 16.3121 695.441 16.7471C695.624 17.1821 696.87 20.5571 698.209 24.2471L700.644 30.9561H716.184H731.724ZM545.597 36.6121C545.393 36.4081 547.6 35.3161 550.5 34.1841L555.774 32.126L299.774 32.1951C158.974 32.2331 42.649 32.399 41.274 32.564C39.899 32.729 -25.801 37.722 -104.726 43.66L-248.226 54.4561L-100.263 54.709L47.7 54.9631L141.737 44.4291C193.457 38.6361 236.674 34.022 237.774 34.176C238.874 34.33 200.242 38.9561 151.926 44.4561L64.0779 54.4561L162.322 54.7111L260.565 54.9661L326.168 43.9351C362.249 37.8691 392.37 33.0291 393.103 33.1801C393.836 33.3321 366.612 38.2531 332.605 44.1171L270.774 54.7781L336.355 54.8671L401.935 54.9561L445.708 43.8931C469.783 37.8081 489.659 33.0071 489.876 33.2241C490.093 33.4411 472.033 38.307 449.742 44.038L409.213 54.4561L452.584 54.7161L495.954 54.9771L519.756 45.9421C532.847 40.9731 543.727 37.076 543.933 37.282C544.14 37.488 534.526 41.437 522.571 46.056L500.834 54.4561L528.992 54.7211L557.15 54.9871L577.165 43.7211L597.18 32.4561L578.306 32.1851C560.203 31.9241 559.158 32.0171 552.7 34.4481C548.997 35.8421 545.8 36.8161 545.597 36.6121ZM609.541 52.384C611.247 50.949 616.943 45.766 622.198 40.866L631.754 31.9561L615.764 31.9791L599.774 32.001L580.329 43.2291L560.884 54.4561L583.662 54.725L606.44 54.9941L609.541 52.384ZM660.816 44.29C662.993 38.424 664.924 33.249 665.107 32.79C665.291 32.331 658.316 31.9771 649.607 32.0021L633.774 32.0471L621.774 43.4771L609.774 54.9081L633.316 54.9321L656.857 54.9561L660.816 44.29ZM706.274 54.2081C706.274 53.7961 704.662 48.6211 702.691 42.7081L699.109 31.9561H683.274H667.439L663.857 42.7081C661.886 48.6211 660.274 53.7961 660.274 54.2081C660.274 54.6191 670.624 54.9561 683.274 54.9561C695.924 54.9561 706.274 54.6191 706.274 54.2081ZM756.774 54.9081L744.774 43.4771L732.774 32.0471L716.941 32.0021C708.232 31.9771 701.257 32.331 701.441 32.79C701.624 33.249 703.555 38.424 705.732 44.29L709.691 54.9561L733.232 54.9321L756.774 54.9081ZM805.674 54.4561L786.122 43.2061L766.57 31.9561H750.682H734.794L744.35 40.866C749.605 45.766 755.301 50.949 757.007 52.384L760.108 54.9941L782.891 54.725L805.674 54.4561ZM865.757 54.4561L836.57 43.2061L807.384 31.9561H788.162C777.59 31.9561 769.128 32.124 769.357 32.329C769.587 32.534 778.682 37.7161 789.57 43.8441L809.366 54.9871L837.561 54.7211L865.757 54.4561ZM957.383 54.4561L913.545 43.2061L869.707 31.9561L840.241 32.019C823.286 32.056 811.623 32.441 812.774 32.925C813.874 33.389 827.343 38.5401 842.706 44.3721L870.637 54.9771L914.01 54.7161L957.383 54.4561ZM1614.77 54.4561L1471.27 43.4561L1327.77 32.4561L1101.88 32.225C977.632 32.097 876.157 32.1671 876.376 32.3801C876.595 32.5931 896.538 37.7601 920.693 43.8621L964.613 54.9561L1030.19 54.8671L1095.77 54.7781L1033.94 44.1171C999.936 38.2531 972.712 33.3321 973.445 33.1801C974.178 33.0291 1004.3 37.8691 1040.38 43.9351L1105.98 54.9661L1204.23 54.7111L1302.47 54.4561L1214.62 44.4561C1166.31 38.9561 1127.67 34.33 1128.77 34.176C1129.87 34.022 1173.09 38.6361 1224.81 44.4291L1318.85 54.9631L1466.81 54.709L1614.77 54.4561ZM123.575 77.876C166.584 70.678 211.674 63.0741 223.774 60.9771L245.774 57.1661L142.274 57.168L38.774 57.17L-106.093 73.813L-250.96 90.4561L-102.792 90.709L45.3759 90.9631L123.575 77.876ZM259.774 90.8831L326.274 73.991L392.774 57.0991L323.774 57.1321L254.774 57.165L158.359 73.811L61.944 90.4561L160.859 90.6691L259.774 90.8831ZM444.746 74.3361C468.961 65.1871 488.962 57.534 489.191 57.329C489.42 57.124 468.945 57.0121 443.691 57.0801L397.774 57.2031L333.774 73.8301L269.774 90.4561L335.246 90.7131L400.718 90.9711L444.746 74.3361ZM522.013 74.8171C537.831 65.9291 551.202 58.2741 551.724 57.8071C552.248 57.3371 539.482 56.984 523.224 57.019L493.774 57.0811L450.848 73.769L407.922 90.4561L450.586 90.717L493.251 90.9771L522.013 74.8171ZM583.62 76.819C591.955 69.03 600.115 61.374 601.755 59.806L604.736 56.9561L580.255 57.0621L555.774 57.1691L527.186 73.8121L498.598 90.4561L533.532 90.7191L568.466 90.9821L583.62 76.819ZM643.552 90.4561L649.783 73.7061L656.015 56.9561L631.894 57.0081L607.774 57.0601L590.274 74.0131L572.774 90.9661L608.163 90.7111L643.552 90.4561ZM717.84 89.2061C717.527 88.2441 715.117 80.7061 712.486 72.4561L707.702 57.4561L683.47 57.188L659.238 56.92L658.377 59.188C657.903 60.435 655.618 67.494 653.299 74.873C650.98 82.253 648.853 88.89 648.571 89.623C648.151 90.718 654.342 90.9561 683.234 90.9561C716.284 90.9561 718.374 90.8501 717.84 89.2061ZM793.774 90.9661L776.274 74.0131L758.774 57.0601L734.654 57.0081L710.533 56.9561L716.765 73.7061L722.996 90.4561L758.385 90.7111L793.774 90.9661ZM867.942 90.4561L838.936 73.7061L809.929 56.9561H785.871H761.812L764.793 59.806C766.433 61.374 774.593 69.03 782.928 76.819L798.082 90.9821L833.012 90.7191L867.942 90.4561ZM958.637 90.4561L915.205 73.6801L871.774 56.905L842.824 56.9301C826.833 56.9451 814.299 57.3371 814.824 57.8071C815.346 58.2741 828.717 65.9291 844.535 74.8171L873.297 90.9771L915.967 90.717L958.637 90.4561ZM1096.77 90.4561L1031.77 73.7031L966.774 56.9501L921.857 56.9531C897.153 56.9551 877.128 57.124 877.357 57.329C877.587 57.534 897.587 65.1871 921.802 74.3361L965.83 90.9711L1031.3 90.7131L1096.77 90.4561ZM1304.59 90.4561L1206.68 73.6821L1108.77 56.9091L1041.27 57.004L973.774 57.0991L1040.27 73.991L1106.77 90.8831L1205.68 90.6691L1304.59 90.4561ZM1617.48 90.4561L1470.13 73.67L1322.77 56.884L1221.77 57.025L1120.77 57.1671L1139.77 60.478C1150.22 62.299 1195.31 69.903 1239.98 77.376L1321.17 90.9631L1469.33 90.709L1617.48 90.4561ZM144.678 119.815C199.731 105.984 245.201 94.2821 245.724 93.8121C246.602 93.0211 52.535 92.8191 45.774 93.6041C44.124 93.7951 -23.685 105.315 -104.913 119.204L-252.601 144.456L-104.01 144.709L44.581 144.963L144.678 119.815ZM324.429 119.873C360.919 106.073 391.202 94.3701 391.724 93.8691C392.648 92.9811 263.016 92.7221 258.774 93.6041C257.674 93.8321 212.609 105.367 158.63 119.238L60.487 144.456L159.286 144.711L258.085 144.966L324.429 119.873ZM442.18 119.713C466.949 105.822 487.227 94.1191 487.244 93.7061C487.28 92.8061 403.909 92.919 400.153 93.824C398.712 94.172 368.507 105.706 333.032 119.456L268.531 144.456L332.839 144.713L397.146 144.971L442.18 119.713ZM537.202 119.821C552.092 105.997 564.274 94.297 564.274 93.821C564.274 93.345 548.636 92.959 529.524 92.962C501.718 92.967 494.239 93.248 492.095 94.366C487.922 96.543 409.019 142.098 406.801 143.611C405.137 144.746 413.058 144.956 457.479 144.956H510.13L537.202 119.821ZM625.663 138.206C636.753 109.015 642.013 94.3451 641.619 93.7061C641.364 93.2931 625.4 92.9561 606.142 92.9561H571.128L551.451 111.869C540.629 122.27 528.636 133.97 524.801 137.869L517.828 144.956H570.463H623.099L625.663 138.206ZM728.089 119.956C723.665 106.481 719.591 94.8941 719.037 94.2061C718.266 93.2491 709.874 92.9561 683.274 92.9561C656.674 92.9561 648.282 93.2491 647.511 94.2061C646.957 94.8941 642.883 106.481 638.459 119.956L630.414 144.456L656.844 144.722C671.38 144.869 695.168 144.869 709.704 144.722L736.134 144.456L728.089 119.956ZM841.747 137.869C837.912 133.97 825.919 122.27 815.097 111.869L795.42 92.9561H760.406C741.148 92.9561 725.184 93.2931 724.929 93.7061C724.535 94.3451 729.795 109.015 740.885 138.206L743.449 144.956H796.085H848.72L841.747 137.869ZM961.138 144.486C960.879 144.228 941.117 132.64 917.221 118.736L873.774 93.4561L838.024 93.1591C816.936 92.9841 802.274 93.236 802.274 93.774C802.274 94.276 814.456 105.997 829.346 119.821L856.418 144.956H909.013C937.94 144.956 961.396 144.745 961.138 144.486ZM1097.99 144.456L1032.38 118.956L966.774 93.4561L923.024 93.1661C898.962 93.0071 879.288 93.2321 879.304 93.6661C879.321 94.1011 899.599 105.822 924.368 119.713L969.402 144.971L1033.7 144.713L1097.99 144.456ZM1306 144.456L1207.38 118.956L1108.77 93.4561L1041.3 93.1791C999.012 93.0051 974.184 93.2531 974.797 93.8441C975.334 94.3631 1005.63 106.077 1042.11 119.877L1108.45 144.966L1207.22 144.711L1306 144.456ZM1619.17 144.456L1470.97 118.956L1322.77 93.4561L1221.3 93.178C1162.82 93.018 1120.23 93.2741 1120.8 93.7811C1121.33 94.2651 1166.8 105.979 1221.83 119.812L1321.89 144.963L1470.53 144.709L1619.17 144.456ZM143.439 188.345C198.073 167.658 243.674 150.362 244.774 149.908C245.874 149.454 200.649 149.089 144.274 149.097L41.774 149.111L-104.319 186.898C-184.671 207.681 -251.046 224.935 -251.819 225.242C-252.593 225.548 -186.327 225.834 -104.561 225.877L44.1049 225.956L143.439 188.345ZM320.971 187.84C358.262 166.871 388.961 149.544 389.191 149.335C389.42 149.127 359.495 149.006 322.691 149.066L255.774 149.177L157.629 187.316L59.4839 225.456L156.325 225.711L253.167 225.966L320.971 187.84ZM461.88 189.861C483.272 170.008 501.889 152.683 503.251 151.361L505.729 148.956L451.251 149.023L396.774 149.09L331.498 186.882C295.596 207.668 265.934 224.963 265.582 225.315C265.229 225.668 300.501 225.956 343.963 225.956H422.986L461.88 189.861ZM606.702 188.706C614.356 168.219 620.813 150.894 621.053 150.206C621.397 149.216 610.185 148.958 567.131 148.965L512.774 148.973L497.274 164.266C488.749 172.678 471 189.999 457.833 202.758L433.891 225.956H513.339H592.787L606.702 188.706ZM762.205 224.706C762.166 224.019 756.641 206.806 749.925 186.456L737.714 149.456L683.558 149.197C653.773 149.055 629.197 149.28 628.945 149.697C628.247 150.854 604.274 224.125 604.274 225.102C604.274 225.572 639.824 225.956 683.274 225.956C745.844 225.956 762.26 225.696 762.205 224.706ZM924.274 217.762C919.599 213.299 901.769 195.992 884.652 179.301L853.529 148.956H799.295C756.342 148.956 745.151 149.216 745.495 150.206C745.735 150.894 752.192 168.219 759.846 188.706L773.761 225.956L853.268 225.917L932.774 225.877L924.274 217.762ZM1100.72 225.098C1100.2 224.626 1070.4 207.301 1034.51 186.598L969.24 148.956H915.03H860.819L863.297 151.361C864.659 152.683 883.276 170.008 904.668 189.861L943.562 225.956H1022.62C1066.66 225.956 1101.25 225.576 1100.72 225.098ZM1307.06 225.456L1208.31 187.206L1109.55 148.956H1043.25C1006.78 148.956 977.128 149.127 977.357 149.335C977.587 149.544 1008.29 166.871 1045.58 187.84L1113.38 225.966L1210.22 225.711L1307.06 225.456ZM1619.19 225.549C1618.96 225.325 1552.35 208 1471.15 187.049L1323.54 148.956L1221.65 149.019C1165.62 149.054 1120.67 149.454 1121.77 149.908C1122.87 150.362 1168.47 167.658 1223.11 188.345L1322.44 225.956H1471.02C1552.74 225.956 1619.42 225.773 1619.19 225.549ZM44.886 343.134C72.904 327.588 239.97 233.459 240.724 232.794C241.246 232.333 196.696 231.995 141.724 232.043L41.774 232.13L-95.726 285.522C-171.351 314.887 -237.726 340.694 -243.226 342.871L-253.226 346.829L-107.614 346.893L37.9969 346.956L44.886 343.134ZM347.777 295.822C378.025 267.699 405.866 241.824 409.646 238.322L416.517 231.956L334.646 232.056L252.774 232.155L156.274 288.096C103.199 318.864 58.649 344.676 57.274 345.457C55.104 346.689 70.4879 346.881 173.777 346.916L292.779 346.956L347.777 295.822ZM568.811 289.956C580.215 259.431 589.758 233.894 590.017 233.206C590.391 232.212 573.793 231.956 509.092 231.956H427.696L368.77 289.206L309.844 346.456L428.255 346.71C493.381 346.85 546.983 346.625 547.371 346.21C547.76 345.795 557.407 320.481 568.811 289.956ZM802.054 345.706C801.815 345.019 793.345 319.144 783.232 288.206L764.843 231.956H683.274H601.705L583.316 288.206C573.203 319.144 564.733 345.019 564.494 345.706C564.148 346.701 588.338 346.956 683.274 346.956C778.21 346.956 802.4 346.701 802.054 345.706ZM1056.7 346.456L997.778 289.206L938.852 231.956H857.456C792.753 231.956 776.157 232.212 776.534 233.206C776.794 233.894 786.333 259.431 797.73 289.956C809.128 320.481 818.775 345.795 819.168 346.21C819.561 346.625 873.167 346.85 938.293 346.71L1056.7 346.456ZM1307.77 344.551C1305.57 343.239 1260.85 317.368 1208.38 287.061L1112.98 231.956H1031.52H950.071L957.423 238.809C961.466 242.578 989.297 268.453 1019.27 296.309L1073.77 346.956L1192.77 346.947L1311.77 346.937L1307.77 344.551ZM1611.27 343.454C1606.6 341.601 1540.01 315.755 1463.29 286.02L1323.81 231.956H1224.34C1169.63 231.956 1125.3 232.333 1125.82 232.794C1126.58 233.459 1293.64 327.588 1321.66 343.134L1328.55 346.956L1474.16 346.89L1619.77 346.824L1611.27 343.454Z" fill="url(#paint0_linear_2_4)"/>
<path fill-rule="evenodd" clip-rule="evenodd" d="M659.24 6.70605L653.774 12.4561L659.524 6.99005C664.866 1.91205 665.732 0.956055 664.99 0.956055C664.834 0.956055 662.246 3.54305 659.24 6.70605ZM706.274 6.45605C709.261 9.48105 711.931 11.9561 712.206 11.9561C712.481 11.9561 710.261 9.48105 707.274 6.45605C704.287 3.43105 701.617 0.956055 701.342 0.956055C701.067 0.956055 703.287 3.43105 706.274 6.45605ZM-268.427 4.70105C-263.587 4.88505 -255.937 4.88404 -251.427 4.69904C-246.916 4.51404 -250.876 4.36405 -260.226 4.36505C-269.576 4.36605 -273.266 4.51805 -268.427 4.70105ZM65.024 4.69904C69.286 4.51204 65.799 4.35803 57.274 4.35803C48.749 4.35803 45.262 4.51204 49.524 4.69904C53.786 4.88704 60.762 4.88704 65.024 4.69904ZM274.524 4.69305C277.412 4.49105 275.049 4.32605 269.274 4.32605C263.499 4.32605 261.136 4.49105 264.024 4.69305C266.912 4.89505 271.636 4.89505 274.524 4.69305ZM405.002 4.67804C406.777 4.89904 409.927 4.90204 412.002 4.68604C414.076 4.46904 412.624 4.28906 408.774 4.28406C404.924 4.28006 403.226 4.45704 405.002 4.67804ZM503.524 4.66205C504.761 4.42305 503.749 4.22803 501.274 4.22803C498.799 4.22803 497.787 4.42305 499.024 4.66205C500.261 4.90005 502.287 4.90005 503.524 4.66205ZM564.024 4.64508C564.986 4.39408 564.199 4.18805 562.274 4.18805C560.349 4.18805 559.562 4.39408 560.524 4.64508C561.486 4.89708 563.062 4.89708 564.024 4.64508ZM601.024 4.61804C601.712 4.89604 602.837 4.89604 603.524 4.61804C604.212 4.34104 603.649 4.11407 602.274 4.11407C600.899 4.11407 600.337 4.34104 601.024 4.61804ZM629.087 4.63904C629.808 4.92804 630.671 4.89206 631.003 4.56006C631.335 4.22806 630.745 3.99203 629.691 4.03503C628.526 4.08303 628.289 4.32004 629.087 4.63904ZM675.274 5.01508C675.274 5.59708 675.724 5.79605 676.274 5.45605C676.824 5.11605 677.274 4.64003 677.274 4.39703C677.274 4.15403 676.824 3.95605 676.274 3.95605C675.724 3.95605 675.274 4.43308 675.274 5.01508ZM689.774 4.95605C690.114 5.50605 690.59 5.95605 690.833 5.95605C691.076 5.95605 691.274 5.50605 691.274 4.95605C691.274 4.40605 690.797 3.95605 690.215 3.95605C689.633 3.95605 689.434 4.40605 689.774 4.95605ZM736.087 4.63904C736.808 4.92804 737.671 4.89206 738.003 4.56006C738.335 4.22806 737.745 3.99203 736.691 4.03503C735.526 4.08303 735.289 4.32004 736.087 4.63904ZM763.024 4.61804C763.712 4.89604 764.837 4.89604 765.524 4.61804C766.212 4.34104 765.649 4.11407 764.274 4.11407C762.899 4.11407 762.337 4.34104 763.024 4.61804ZM806.024 4.64508C806.987 4.39408 806.199 4.18805 804.274 4.18805C802.349 4.18805 801.561 4.39408 802.524 4.64508C803.487 4.89708 805.061 4.89708 806.024 4.64508ZM867.524 4.66205C868.761 4.42305 867.749 4.22803 865.274 4.22803C862.799 4.22803 861.787 4.42305 863.024 4.66205C864.261 4.90005 866.287 4.90005 867.524 4.66205ZM954.002 4.67804C955.777 4.89904 958.927 4.90204 961.002 4.68604C963.076 4.46904 961.624 4.28906 957.774 4.28406C953.924 4.28006 952.226 4.45704 954.002 4.67804ZM1102.52 4.69305C1105.41 4.49105 1103.05 4.32605 1097.27 4.32605C1091.5 4.32605 1089.14 4.49105 1092.02 4.69305C1094.91 4.89505 1099.64 4.89505 1102.52 4.69305ZM1317.02 4.69904C1321.29 4.51204 1317.8 4.35803 1309.27 4.35803C1300.75 4.35803 1297.26 4.51204 1301.52 4.69904C1305.79 4.88704 1312.76 4.88704 1317.02 4.69904ZM1618.57 4.70105C1623.41 4.88505 1631.06 4.88404 1635.57 4.69904C1640.08 4.51404 1636.12 4.36405 1626.77 4.36505C1617.42 4.36605 1613.73 4.51805 1618.57 4.70105ZM340.087 9.63904C340.808 9.92804 341.671 9.89206 342.003 9.56006C342.335 9.22806 341.745 8.99203 340.691 9.03503C339.526 9.08303 339.289 9.32004 340.087 9.63904ZM1025.09 9.63904C1025.81 9.92804 1026.67 9.89206 1027 9.56006C1027.33 9.22806 1026.74 8.99203 1025.69 9.03503C1024.53 9.08303 1024.29 9.32004 1025.09 9.63904ZM145.087 10.639C145.808 10.928 146.671 10.8921 147.003 10.5601C147.335 10.2281 146.745 9.99203 145.691 10.035C144.526 10.083 144.289 10.32 145.087 10.639ZM149.087 10.639C149.808 10.928 150.671 10.8921 151.003 10.5601C151.335 10.2281 150.745 9.99203 149.691 10.035C148.526 10.083 148.289 10.32 149.087 10.639ZM330.087 10.639C330.808 10.928 331.671 10.8921 332.003 10.5601C332.335 10.2281 331.745 9.99203 330.691 10.035C329.526 10.083 329.289 10.32 330.087 10.639ZM1035.09 10.639C1035.81 10.928 1036.67 10.8921 1037 10.5601C1037.33 10.2281 1036.74 9.99203 1035.69 10.035C1034.53 10.083 1034.29 10.32 1035.09 10.639ZM1216.09 10.639C1216.81 10.928 1217.67 10.8921 1218 10.5601C1218.33 10.2281 1217.74 9.99203 1216.69 10.035C1215.53 10.083 1215.29 10.32 1216.09 10.639ZM1220.09 10.639C1220.81 10.928 1221.67 10.8921 1222 10.5601C1222.33 10.2281 1221.74 9.99203 1220.69 10.035C1219.53 10.083 1219.29 10.32 1220.09 10.639ZM-152.476 11.6791C-150.689 11.4581 -152.151 11.2761 -155.726 11.2761C-159.301 11.2761 -160.763 11.4581 -158.976 11.6791C-157.189 11.9011 -154.263 11.9011 -152.476 11.6791ZM130.524 11.662C131.762 11.423 130.749 11.228 128.274 11.228C125.799 11.228 124.786 11.423 126.024 11.662C127.262 11.9 129.286 11.9 130.524 11.662ZM314.036 11.663C315.28 11.902 317.08 11.8931 318.036 11.6431C318.992 11.3931 317.974 11.1971 315.774 11.2081C313.574 11.2191 312.792 11.424 314.036 11.663ZM438.024 11.618C438.712 11.896 439.837 11.896 440.524 11.618C441.212 11.341 440.649 11.1141 439.274 11.1141C437.899 11.1141 437.337 11.341 438.024 11.618ZM926.024 11.618C926.712 11.896 927.837 11.896 928.524 11.618C929.212 11.341 928.649 11.1141 927.274 11.1141C925.899 11.1141 925.337 11.341 926.024 11.618ZM1049.04 11.663C1050.28 11.902 1052.08 11.8931 1053.04 11.6431C1053.99 11.3931 1052.97 11.1971 1050.77 11.2081C1048.57 11.2191 1047.79 11.424 1049.04 11.663ZM1240.52 11.662C1241.76 11.423 1240.75 11.228 1238.27 11.228C1235.8 11.228 1234.79 11.423 1236.02 11.662C1237.26 11.9 1239.29 11.9 1240.52 11.662ZM1525.52 11.6791C1527.31 11.4581 1525.85 11.2761 1522.27 11.2761C1518.7 11.2761 1517.24 11.4581 1519.02 11.6791C1520.81 11.9011 1523.74 11.9011 1525.52 11.6791ZM-189.998 12.678C-188.223 12.899 -185.073 12.902 -182.998 12.686C-180.924 12.469 -182.376 12.2891 -186.226 12.2841C-190.076 12.2801 -191.774 12.457 -189.998 12.678ZM111.024 12.6721C112.536 12.4431 111.299 12.256 108.274 12.256C105.249 12.256 104.012 12.4431 105.524 12.6721C107.036 12.9011 109.512 12.9011 111.024 12.6721ZM304.024 12.6451C304.986 12.3941 304.199 12.188 302.274 12.188C300.349 12.188 299.562 12.3941 300.524 12.6451C301.486 12.8971 303.062 12.8971 304.024 12.6451ZM429.024 12.618C429.712 12.896 430.837 12.896 431.524 12.618C432.212 12.341 431.649 12.1141 430.274 12.1141C428.899 12.1141 428.337 12.341 429.024 12.618ZM935.024 12.618C935.712 12.896 936.837 12.896 937.524 12.618C938.212 12.341 937.649 12.1141 936.274 12.1141C934.899 12.1141 934.337 12.341 935.024 12.618ZM1066.02 12.6451C1066.99 12.3941 1066.2 12.188 1064.27 12.188C1062.35 12.188 1061.56 12.3941 1062.52 12.6451C1063.49 12.8971 1065.06 12.8971 1066.02 12.6451ZM1261.02 12.6721C1262.54 12.4431 1261.3 12.256 1258.27 12.256C1255.25 12.256 1254.01 12.4431 1255.52 12.6721C1257.04 12.9011 1259.51 12.9011 1261.02 12.6721ZM1549 12.678C1550.78 12.899 1553.93 12.902 1556 12.686C1558.08 12.469 1556.62 12.2891 1552.77 12.2841C1548.92 12.2801 1547.23 12.457 1549 12.678ZM-220.476 13.6841C-218.413 13.9001 -215.038 13.9001 -212.976 13.6841C-210.913 13.4691 -212.601 13.2921 -216.726 13.2921C-220.851 13.2921 -222.538 13.4691 -220.476 13.6841ZM91.024 13.6721C92.536 13.4431 91.299 13.256 88.274 13.256C85.249 13.256 84.012 13.4431 85.524 13.6721C87.036 13.9011 89.512 13.9011 91.024 13.6721ZM287.036 13.663C288.28 13.902 290.08 13.8931 291.036 13.6431C291.992 13.3931 290.974 13.1971 288.774 13.2081C286.574 13.2191 285.792 13.424 287.036 13.663ZM420.024 13.618C420.712 13.896 421.837 13.896 422.524 13.618C423.212 13.341 422.649 13.1141 421.274 13.1141C419.899 13.1141 419.337 13.341 420.024 13.618ZM944.024 13.618C944.712 13.896 945.837 13.896 946.524 13.618C947.212 13.341 946.649 13.1141 945.274 13.1141C943.899 13.1141 943.337 13.341 944.024 13.618ZM1076.04 13.663C1077.28 13.902 1079.08 13.8931 1080.04 13.6431C1080.99 13.3931 1079.97 13.1971 1077.77 13.2081C1075.57 13.2191 1074.79 13.424 1076.04 13.663ZM1281.02 13.6721C1282.54 13.4431 1281.3 13.256 1278.27 13.256C1275.25 13.256 1274.01 13.4431 1275.52 13.6721C1277.04 13.9011 1279.51 13.9011 1281.02 13.6721ZM1579.52 13.6841C1581.59 13.9001 1584.96 13.9001 1587.02 13.6841C1589.09 13.4691 1587.4 13.2921 1583.27 13.2921C1579.15 13.2921 1577.46 13.4691 1579.52 13.6841ZM10.524 17.6791C12.312 17.4581 10.849 17.2761 7.27396 17.2761C3.69896 17.2761 2.23596 17.4581 4.02396 17.6791C5.81196 17.9011 8.73596 17.9011 10.524 17.6791ZM233.024 17.662C234.262 17.9 236.287 17.9 237.524 17.662C238.761 17.423 237.749 17.228 235.274 17.228C232.799 17.228 231.786 17.423 233.024 17.662ZM384.543 17.649C385.516 17.903 386.866 17.8861 387.543 17.6121C388.22 17.3381 387.424 17.1311 385.774 17.1511C384.124 17.1711 383.57 17.395 384.543 17.649ZM485.087 17.639C485.808 17.928 486.671 17.8921 487.003 17.5601C487.335 17.2281 486.745 16.992 485.691 17.035C484.526 17.083 484.289 17.32 485.087 17.639ZM551.087 17.639C551.808 17.928 552.671 17.8921 553.003 17.5601C553.335 17.2281 552.745 16.992 551.691 17.035C550.526 17.083 550.289 17.32 551.087 17.639ZM814.087 17.639C814.808 17.928 815.671 17.8921 816.003 17.5601C816.335 17.2281 815.745 16.992 814.691 17.035C813.526 17.083 813.289 17.32 814.087 17.639ZM880.087 17.639C880.808 17.928 881.671 17.8921 882.003 17.5601C882.335 17.2281 881.745 16.992 880.691 17.035C879.526 17.083 879.289 17.32 880.087 17.639ZM979.543 17.649C980.516 17.903 981.866 17.8861 982.543 17.6121C983.22 17.3381 982.424 17.1311 980.774 17.1511C979.124 17.1711 978.57 17.395 979.543 17.649ZM1133.52 17.662C1134.76 17.423 1133.75 17.228 1131.27 17.228C1128.8 17.228 1127.79 17.423 1129.02 17.662C1130.26 17.9 1132.29 17.9 1133.52 17.662ZM1362.52 17.6791C1364.31 17.4581 1362.85 17.2761 1359.27 17.2761C1355.7 17.2761 1354.24 17.4581 1356.02 17.6791C1357.81 17.9011 1360.74 17.9011 1362.52 17.6791ZM-9.47604 18.6791C-7.68804 18.4581 -9.15104 18.2761 -12.726 18.2761C-16.301 18.2761 -17.764 18.4581 -15.976 18.6791C-14.188 18.9011 -11.264 18.9011 -9.47604 18.6791ZM224.524 18.662C225.762 18.423 224.749 18.228 222.274 18.228C219.799 18.228 218.786 18.423 220.024 18.662C221.262 18.9 223.286 18.9 224.524 18.662ZM375.543 18.649C376.516 18.903 377.866 18.8861 378.543 18.6121C379.22 18.3381 378.424 18.1311 376.774 18.1511C375.124 18.1711 374.57 18.395 375.543 18.649ZM479.087 18.639C479.808 18.928 480.671 18.8921 481.003 18.5601C481.335 18.2281 480.745 17.992 479.691 18.035C478.526 18.083 478.289 18.32 479.087 18.639ZM547.087 18.639C547.808 18.928 548.671 18.8921 549.003 18.5601C549.335 18.2281 548.745 17.992 547.691 18.035C546.526 18.083 546.289 18.32 547.087 18.639ZM818.087 18.639C818.808 18.928 819.671 18.8921 820.003 18.5601C820.335 18.2281 819.745 17.992 818.691 18.035C817.526 18.083 817.289 18.32 818.087 18.639ZM886.087 18.639C886.808 18.928 887.671 18.8921 888.003 18.5601C888.335 18.2281 887.745 17.992 886.691 18.035C885.526 18.083 885.289 18.32 886.087 18.639ZM988.543 18.649C989.516 18.903 990.866 18.8861 991.543 18.6121C992.22 18.3381 991.424 18.1311 989.774 18.1511C988.124 18.1711 987.57 18.395 988.543 18.649ZM1146.52 18.662C1147.76 18.423 1146.75 18.228 1144.27 18.228C1141.8 18.228 1140.79 18.423 1142.02 18.662C1143.26 18.9 1145.29 18.9 1146.52 18.662ZM1382.52 18.6791C1384.31 18.4581 1382.85 18.2761 1379.27 18.2761C1375.7 18.2761 1374.24 18.4581 1376.02 18.6791C1377.81 18.9011 1380.74 18.9011 1382.52 18.6791ZM-36.998 19.678C-35.223 19.899 -32.073 19.902 -29.998 19.686C-27.924 19.469 -29.376 19.2891 -33.226 19.2841C-37.076 19.2801 -38.774 19.457 -36.998 19.678ZM206.538 19.6741C208.058 19.9031 210.308 19.897 211.538 19.66C212.768 19.423 211.524 19.2351 208.774 19.2421C206.024 19.2501 205.018 19.4441 206.538 19.6741ZM370.024 19.6451C370.986 19.3941 370.199 19.188 368.274 19.188C366.349 19.188 365.562 19.3941 366.524 19.6451C367.486 19.8971 369.062 19.8971 370.024 19.6451ZM473.087 19.639C473.808 19.928 474.671 19.8921 475.003 19.5601C475.335 19.2281 474.745 18.992 473.691 19.035C472.526 19.083 472.289 19.32 473.087 19.639ZM588.274 19.9561C587.449 20.4891 587.224 20.925 587.774 20.925C588.324 20.925 589.449 20.4891 590.274 19.9561C591.099 19.4231 591.324 18.9871 590.774 18.9871C590.224 18.9871 589.099 19.4231 588.274 19.9561ZM618.024 20.5281C614.286 22.5561 614.513 23.4011 618.274 21.4561C619.924 20.6031 621.274 19.6911 621.274 19.4301C621.274 18.7871 621.167 18.8231 618.024 20.5281ZM745.274 19.405C745.274 19.68 746.624 20.6031 748.274 21.4561C749.924 22.3091 751.274 22.7821 751.274 22.5071C751.274 22.2321 749.924 21.3091 748.274 20.4561C746.624 19.6031 745.274 19.13 745.274 19.405ZM776.274 19.9561C777.099 20.4891 778.224 20.925 778.774 20.925C779.324 20.925 779.099 20.4891 778.274 19.9561C777.449 19.4231 776.324 18.9871 775.774 18.9871C775.224 18.9871 775.449 19.4231 776.274 19.9561ZM892.087 19.639C892.808 19.928 893.671 19.8921 894.003 19.5601C894.335 19.2281 893.745 18.992 892.691 19.035C891.526 19.083 891.289 19.32 892.087 19.639ZM1000.02 19.6451C1000.99 19.3941 1000.2 19.188 998.274 19.188C996.349 19.188 995.561 19.3941 996.524 19.6451C997.487 19.8971 999.061 19.8971 1000.02 19.6451ZM1155.54 19.6741C1157.06 19.9031 1159.31 19.897 1160.54 19.66C1161.77 19.423 1160.52 19.2351 1157.77 19.2421C1155.02 19.2501 1154.02 19.4441 1155.54 19.6741ZM1396 19.678C1397.78 19.899 1400.93 19.902 1403 19.686C1405.08 19.469 1403.62 19.2891 1399.77 19.2841C1395.92 19.2801 1394.23 19.457 1396 19.678ZM-48.476 20.6791C-46.689 20.4581 -48.151 20.2761 -51.726 20.2761C-55.301 20.2761 -56.763 20.4581 -54.976 20.6791C-53.189 20.9011 -50.263 20.9011 -48.476 20.6791ZM198.524 20.662C199.762 20.423 198.749 20.228 196.274 20.228C193.799 20.228 192.786 20.423 194.024 20.662C195.262 20.9 197.286 20.9 198.524 20.662ZM358.543 20.649C359.516 20.903 360.866 20.8861 361.543 20.6121C362.22 20.3381 361.424 20.1311 359.774 20.1511C358.124 20.1711 357.57 20.395 358.543 20.649ZM467.024 20.618C467.712 20.896 468.837 20.896 469.524 20.618C470.212 20.341 469.649 20.1141 468.274 20.1141C466.899 20.1141 466.337 20.341 467.024 20.618ZM897.024 20.618C897.712 20.896 898.837 20.896 899.524 20.618C900.212 20.341 899.649 20.1141 898.274 20.1141C896.899 20.1141 896.337 20.341 897.024 20.618ZM1005.54 20.649C1006.52 20.903 1007.87 20.8861 1008.54 20.6121C1009.22 20.3381 1008.42 20.1311 1006.77 20.1511C1005.12 20.1711 1004.57 20.395 1005.54 20.649ZM1172.52 20.662C1173.76 20.423 1172.75 20.228 1170.27 20.228C1167.8 20.228 1166.79 20.423 1168.02 20.662C1169.26 20.9 1171.29 20.9 1172.52 20.662ZM1421.52 20.6791C1423.31 20.4581 1421.85 20.2761 1418.27 20.2761C1414.7 20.2761 1413.24 20.4581 1415.02 20.6791C1416.81 20.9011 1419.74 20.9011 1421.52 20.6791ZM-76.998 21.678C-75.223 21.899 -72.073 21.902 -69.998 21.686C-67.924 21.469 -69.376 21.2891 -73.226 21.2841C-77.076 21.2801 -78.774 21.457 -76.998 21.678ZM185.024 21.6721C186.536 21.4431 185.299 21.256 182.274 21.256C179.249 21.256 178.012 21.4431 179.524 21.6721C181.036 21.9011 183.512 21.9011 185.024 21.6721ZM349.543 21.649C350.516 21.903 351.866 21.8861 352.543 21.6121C353.22 21.3381 352.424 21.1311 350.774 21.1511C349.124 21.1711 348.57 21.395 349.543 21.649ZM461.024 21.618C461.712 21.896 462.837 21.896 463.524 21.618C464.212 21.341 463.649 21.1141 462.274 21.1141C460.899 21.1141 460.337 21.341 461.024 21.618ZM903.024 21.618C903.712 21.896 904.837 21.896 905.524 21.618C906.212 21.341 905.649 21.1141 904.274 21.1141C902.899 21.1141 902.337 21.341 903.024 21.618ZM1014.54 21.649C1015.52 21.903 1016.87 21.8861 1017.54 21.6121C1018.22 21.3381 1017.42 21.1311 1015.77 21.1511C1014.12 21.1711 1013.57 21.395 1014.54 21.649ZM1187.02 21.6721C1188.54 21.4431 1187.3 21.256 1184.27 21.256C1181.25 21.256 1180.01 21.4431 1181.52 21.6721C1183.04 21.9011 1185.51 21.9011 1187.02 21.6721ZM1436 21.678C1437.78 21.899 1440.93 21.902 1443 21.686C1445.08 21.469 1443.62 21.2891 1439.77 21.2841C1435.92 21.2801 1434.23 21.457 1436 21.678ZM-97.476 22.6841C-95.413 22.9001 -92.038 22.9001 -89.976 22.6841C-87.913 22.4691 -89.601 22.2921 -93.726 22.2921C-97.851 22.2921 -99.538 22.4691 -97.476 22.6841ZM166.538 22.6741C168.058 22.9031 170.308 22.897 171.538 22.66C172.768 22.423 171.524 22.2351 168.774 22.2421C166.024 22.2501 165.018 22.4441 166.538 22.6741ZM340.543 22.649C341.516 22.903 342.866 22.8861 343.543 22.6121C344.22 22.3381 343.424 22.1311 341.774 22.1511C340.124 22.1711 339.57 22.395 340.543 22.649ZM455.024 22.618C455.712 22.896 456.837 22.896 457.524 22.618C458.212 22.341 457.649 22.1141 456.274 22.1141C454.899 22.1141 454.337 22.341 455.024 22.618ZM909.024 22.618C909.712 22.896 910.837 22.896 911.524 22.618C912.212 22.341 911.649 22.1141 910.274 22.1141C908.899 22.1141 908.337 22.341 909.024 22.618ZM1023.54 22.649C1024.52 22.903 1025.87 22.8861 1026.54 22.6121C1027.22 22.3381 1026.42 22.1311 1024.77 22.1511C1023.12 22.1711 1022.57 22.395 1023.54 22.649ZM1195.54 22.6741C1197.06 22.9031 1199.31 22.897 1200.54 22.66C1201.77 22.423 1200.52 22.2351 1197.77 22.2421C1195.02 22.2501 1194.02 22.4441 1195.54 22.6741ZM1456.52 22.6841C1458.59 22.9001 1461.96 22.9001 1464.02 22.6841C1466.09 22.4691 1464.4 22.2921 1460.27 22.2921C1456.15 22.2921 1454.46 22.4691 1456.52 22.6841ZM-117.476 23.6841C-115.413 23.9001 -112.038 23.9001 -109.976 23.6841C-107.913 23.4691 -109.601 23.2921 -113.726 23.2921C-117.851 23.2921 -119.538 23.4691 -117.476 23.6841ZM158.024 23.6721C159.536 23.4431 158.299 23.256 155.274 23.256C152.249 23.256 151.012 23.4431 152.524 23.6721C154.036 23.9011 156.512 23.9011 158.024 23.6721ZM335.024 23.6451C335.986 23.3941 335.199 23.188 333.274 23.188C331.349 23.188 330.562 23.3941 331.524 23.6451C332.486 23.8971 334.062 23.8971 335.024 23.6451ZM449.024 23.618C449.712 23.896 450.837 23.896 451.524 23.618C452.212 23.341 451.649 23.1141 450.274 23.1141C448.899 23.1141 448.337 23.341 449.024 23.618ZM611.024 24.5281C607.286 26.5561 607.513 27.4011 611.274 25.4561C612.924 24.6031 614.274 23.6911 614.274 23.4301C614.274 22.7871 614.167 22.8231 611.024 24.5281ZM752.274 23.405C752.274 23.68 753.624 24.6031 755.274 25.4561C756.924 26.3091 758.274 26.7821 758.274 26.5071C758.274 26.2321 756.924 25.3091 755.274 24.4561C753.624 23.6031 752.274 23.13 752.274 23.405ZM915.024 23.618C915.712 23.896 916.837 23.896 917.524 23.618C918.212 23.341 917.649 23.1141 916.274 23.1141C914.899 23.1141 914.337 23.341 915.024 23.618ZM1035.02 23.6451C1035.99 23.3941 1035.2 23.188 1033.27 23.188C1031.35 23.188 1030.56 23.3941 1031.52 23.6451C1032.49 23.8971 1034.06 23.8971 1035.02 23.6451ZM1214.02 23.6721C1215.54 23.4431 1214.3 23.256 1211.27 23.256C1208.25 23.256 1207.01 23.4431 1208.52 23.6721C1210.04 23.9011 1212.51 23.9011 1214.02 23.6721ZM1476.52 23.6841C1478.59 23.9001 1481.96 23.9001 1484.02 23.6841C1486.09 23.4691 1484.4 23.2921 1480.27 23.2921C1476.15 23.2921 1474.46 23.4691 1476.52 23.6841ZM-129.476 24.688C-127.138 24.478 -129.051 24.3051 -133.726 24.3051C-138.401 24.3051 -140.314 24.478 -137.976 24.688C-135.638 24.899 -131.814 24.899 -129.476 24.688ZM145.024 24.6721C146.536 24.4431 145.299 24.256 142.274 24.256C139.249 24.256 138.012 24.4431 139.524 24.6721C141.036 24.9011 143.512 24.9011 145.024 24.6721ZM326.024 24.6451C326.986 24.3941 326.199 24.188 324.274 24.188C322.349 24.188 321.562 24.3941 322.524 24.6451C323.486 24.8971 325.062 24.8971 326.024 24.6451ZM443.024 24.618C443.712 24.896 444.837 24.896 445.524 24.618C446.212 24.341 445.649 24.1141 444.274 24.1141C442.899 24.1141 442.337 24.341 443.024 24.618ZM921.024 24.618C921.712 24.896 922.837 24.896 923.524 24.618C924.212 24.341 923.649 24.1141 922.274 24.1141C920.899 24.1141 920.337 24.341 921.024 24.618ZM1044.02 24.6451C1044.99 24.3941 1044.2 24.188 1042.27 24.188C1040.35 24.188 1039.56 24.3941 1040.52 24.6451C1041.49 24.8971 1043.06 24.8971 1044.02 24.6451ZM1227.02 24.6721C1228.54 24.4431 1227.3 24.256 1224.27 24.256C1221.25 24.256 1220.01 24.4431 1221.52 24.6721C1223.04 24.9011 1225.51 24.9011 1227.02 24.6721ZM1504.52 24.688C1506.86 24.478 1504.95 24.3051 1500.27 24.3051C1495.6 24.3051 1493.69 24.478 1496.02 24.688C1498.36 24.899 1502.19 24.899 1504.52 24.688ZM-157.976 25.688C-155.639 25.899 -151.814 25.899 -149.476 25.688C-147.138 25.478 -149.051 25.3051 -153.726 25.3051C-158.401 25.3051 -160.314 25.478 -157.976 25.688ZM126.042 25.681C127.839 25.903 130.539 25.8991 132.042 25.6711C133.545 25.4421 132.074 25.2601 128.774 25.2661C125.474 25.2711 124.245 25.458 126.042 25.681ZM317.024 25.6451C317.986 25.3941 317.199 25.188 315.274 25.188C313.349 25.188 312.562 25.3941 313.524 25.6451C314.486 25.8971 316.062 25.8971 317.024 25.6451ZM437.024 25.618C437.712 25.896 438.837 25.896 439.524 25.618C440.212 25.341 439.649 25.1141 438.274 25.1141C436.899 25.1141 436.337 25.341 437.024 25.618ZM520.087 25.639C520.808 25.928 521.671 25.8921 522.003 25.5601C522.335 25.2281 521.745 24.992 520.691 25.035C519.526 25.083 519.289 25.32 520.087 25.639ZM845.087 25.639C845.808 25.928 846.671 25.8921 847.003 25.5601C847.335 25.2281 846.745 24.992 845.691 25.035C844.526 25.083 844.289 25.32 845.087 25.639ZM927.024 25.618C927.712 25.896 928.837 25.896 929.524 25.618C930.212 25.341 929.649 25.1141 928.274 25.1141C926.899 25.1141 926.337 25.341 927.024 25.618ZM1053.02 25.6451C1053.99 25.3941 1053.2 25.188 1051.27 25.188C1049.35 25.188 1048.56 25.3941 1049.52 25.6451C1050.49 25.8971 1052.06 25.8971 1053.02 25.6451ZM1235.04 25.681C1236.84 25.903 1239.54 25.8991 1241.04 25.6711C1242.54 25.4421 1241.07 25.2601 1237.77 25.2661C1234.47 25.2711 1233.24 25.458 1235.04 25.681ZM1524.52 25.688C1526.86 25.478 1524.95 25.3051 1520.27 25.3051C1515.6 25.3051 1513.69 25.478 1516.02 25.688C1518.36 25.899 1522.19 25.899 1524.52 25.688ZM-177.976 26.688C-175.639 26.899 -171.814 26.899 -169.476 26.688C-167.139 26.478 -169.051 26.3051 -173.726 26.3051C-178.401 26.3051 -180.314 26.478 -177.976 26.688ZM113.042 26.681C114.839 26.903 117.539 26.8991 119.042 26.6711C120.545 26.4421 119.074 26.2601 115.774 26.2661C112.474 26.2711 111.245 26.458 113.042 26.681ZM304.524 26.6451C305.486 26.8971 307.062 26.8971 308.024 26.6451C308.986 26.3941 308.199 26.188 306.274 26.188C304.349 26.188 303.562 26.3941 304.524 26.6451ZM431.543 26.649C432.516 26.903 433.866 26.8861 434.543 26.6121C435.22 26.3381 434.424 26.1311 432.774 26.1511C431.124 26.1711 430.57 26.395 431.543 26.649ZM516.087 26.639C516.808 26.928 517.671 26.8921 518.003 26.5601C518.335 26.2281 517.745 25.992 516.691 26.035C515.526 26.083 515.289 26.32 516.087 26.639ZM849.087 26.639C849.808 26.928 850.671 26.8921 851.003 26.5601C851.335 26.2281 850.745 25.992 849.691 26.035C848.526 26.083 848.289 26.32 849.087 26.639ZM932.543 26.649C933.516 26.903 934.866 26.8861 935.543 26.6121C936.22 26.3381 935.424 26.1311 933.774 26.1511C932.124 26.1711 931.57 26.395 932.543 26.649ZM1062.02 26.6451C1062.99 26.3941 1062.2 26.188 1060.27 26.188C1058.35 26.188 1057.56 26.3941 1058.52 26.6451C1059.49 26.8971 1061.06 26.8971 1062.02 26.6451ZM1248.04 26.681C1249.84 26.903 1252.54 26.8991 1254.04 26.6711C1255.54 26.4421 1254.07 26.2601 1250.77 26.2661C1247.47 26.2711 1246.24 26.458 1248.04 26.681ZM1544.52 26.688C1546.86 26.478 1544.95 26.3051 1540.27 26.3051C1535.6 26.3051 1533.69 26.478 1536.02 26.688C1538.36 26.899 1542.19 26.899 1544.52 26.688ZM-198.446 27.6921C-195.817 27.8991 -191.767 27.8961 -189.446 27.6871C-187.125 27.4771 -189.276 27.308 -194.226 27.311C-199.176 27.314 -201.075 27.4861 -198.446 27.6921ZM105.524 27.6791C107.312 27.4581 105.849 27.2761 102.274 27.2761C98.699 27.2761 97.236 27.4581 99.024 27.6791C100.812 27.9011 103.736 27.9011 105.524 27.6791ZM296.036 27.663C297.28 27.902 299.08 27.8931 300.036 27.6431C300.992 27.3931 299.974 27.1971 297.774 27.2081C295.574 27.2191 294.792 27.424 296.036 27.663ZM425.543 27.649C426.516 27.903 427.866 27.8861 428.543 27.6121C429.22 27.3381 428.424 27.1311 426.774 27.1511C425.124 27.1711 424.57 27.395 425.543 27.649ZM512.087 27.639C512.808 27.928 513.671 27.8921 514.003 27.5601C514.335 27.2281 513.745 26.992 512.691 27.035C511.526 27.083 511.289 27.32 512.087 27.639ZM567.274 27.9561C566.449 28.4891 566.224 28.925 566.774 28.925C567.324 28.925 568.449 28.4891 569.274 27.9561C570.099 27.4231 570.324 26.9871 569.774 26.9871C569.224 26.9871 568.099 27.4231 567.274 27.9561ZM797.274 27.9561C798.099 28.4891 799.224 28.925 799.774 28.925C800.324 28.925 800.099 28.4891 799.274 27.9561C798.449 27.4231 797.324 26.9871 796.774 26.9871C796.224 26.9871 796.449 27.4231 797.274 27.9561ZM853.087 27.639C853.808 27.928 854.671 27.8921 855.003 27.5601C855.335 27.2281 854.745 26.992 853.691 27.035C852.526 27.083 852.289 27.32 853.087 27.639ZM938.543 27.649C939.516 27.903 940.866 27.8861 941.543 27.6121C942.22 27.3381 941.424 27.1311 939.774 27.1511C938.124 27.1711 937.57 27.395 938.543 27.649ZM1067.04 27.663C1068.28 27.902 1070.08 27.8931 1071.04 27.6431C1071.99 27.3931 1070.97 27.1971 1068.77 27.2081C1066.57 27.2191 1065.79 27.424 1067.04 27.663ZM1267.52 27.6791C1269.31 27.4581 1267.85 27.2761 1264.27 27.2761C1260.7 27.2761 1259.24 27.4581 1261.02 27.6791C1262.81 27.9011 1265.74 27.9011 1267.52 27.6791ZM1556.55 27.6921C1559.18 27.8991 1563.23 27.8961 1565.55 27.6871C1567.88 27.4771 1565.72 27.308 1560.77 27.311C1555.82 27.314 1553.93 27.4861 1556.55 27.6921ZM-218.446 28.6921C-215.817 28.8991 -211.767 28.8961 -209.446 28.6871C-207.125 28.4771 -209.276 28.308 -214.226 28.311C-219.176 28.314 -221.075 28.4861 -218.446 28.6921ZM86.042 28.681C87.839 28.903 90.539 28.8991 92.042 28.6711C93.545 28.4421 92.074 28.2601 88.774 28.2661C85.474 28.2711 84.245 28.458 86.042 28.681ZM287.036 28.663C288.28 28.902 290.08 28.8931 291.036 28.6431C291.992 28.3931 290.974 28.1971 288.774 28.2081C286.574 28.2191 285.792 28.424 287.036 28.663ZM419.543 28.649C420.516 28.903 421.866 28.8861 422.543 28.6121C423.22 28.3381 422.424 28.1311 420.774 28.1511C419.124 28.1711 418.57 28.395 419.543 28.649ZM508.087 28.639C508.808 28.928 509.671 28.8921 510.003 28.5601C510.335 28.2281 509.745 27.992 508.691 28.035C507.526 28.083 507.289 28.32 508.087 28.639ZM857.087 28.639C857.808 28.928 858.671 28.8921 859.003 28.5601C859.335 28.2281 858.745 27.992 857.691 28.035C856.526 28.083 856.289 28.32 857.087 28.639ZM944.543 28.649C945.516 28.903 946.866 28.8861 947.543 28.6121C948.22 28.3381 947.424 28.1311 945.774 28.1511C944.124 28.1711 943.57 28.395 944.543 28.649ZM1076.04 28.663C1077.28 28.902 1079.08 28.8931 1080.04 28.6431C1080.99 28.3931 1079.97 28.1971 1077.77 28.2081C1075.57 28.2191 1074.79 28.424 1076.04 28.663ZM1275.04 28.681C1276.84 28.903 1279.54 28.8991 1281.04 28.6711C1282.54 28.4421 1281.07 28.2601 1277.77 28.2661C1274.47 28.2711 1273.24 28.458 1275.04 28.681ZM1576.55 28.6921C1579.18 28.8991 1583.23 28.8961 1585.55 28.6871C1587.88 28.4771 1585.72 28.308 1580.77 28.311C1575.82 28.314 1573.93 28.4861 1576.55 28.6921ZM-229.976 29.691C-227.364 29.485 -229.501 29.316 -234.726 29.316C-239.951 29.316 -242.088 29.485 -239.476 29.691C-236.864 29.897 -232.588 29.897 -229.976 29.691ZM78.524 29.6791C80.312 29.4581 78.849 29.2761 75.274 29.2761C71.699 29.2761 70.236 29.4581 72.024 29.6791C73.812 29.9011 76.736 29.9011 78.524 29.6791ZM278.036 29.663C279.28 29.902 281.08 29.8931 282.036 29.6431C282.992 29.3931 281.974 29.1971 279.774 29.2081C277.574 29.2191 276.792 29.424 278.036 29.663ZM413.543 29.649C414.516 29.903 415.866 29.8861 416.543 29.6121C417.22 29.3381 416.424 29.1311 414.774 29.1511C413.124 29.1711 412.57 29.395 413.543 29.649ZM504.087 29.639C504.808 29.928 505.671 29.8921 506.003 29.5601C506.335 29.2281 505.745 28.992 504.691 29.035C503.526 29.083 503.289 29.32 504.087 29.639ZM861.087 29.639C861.808 29.928 862.671 29.8921 863.003 29.5601C863.335 29.2281 862.745 28.992 861.691 29.035C860.526 29.083 860.289 29.32 861.087 29.639ZM950.543 29.649C951.516 29.903 952.866 29.8861 953.543 29.6121C954.22 29.3381 953.424 29.1311 951.774 29.1511C950.124 29.1711 949.57 29.395 950.543 29.649ZM1085.04 29.663C1086.28 29.902 1088.08 29.8931 1089.04 29.6431C1089.99 29.3931 1088.97 29.1971 1086.77 29.2081C1084.57 29.2191 1083.79 29.424 1085.04 29.663ZM1294.52 29.6791C1296.31 29.4581 1294.85 29.2761 1291.27 29.2761C1287.7 29.2761 1286.24 29.4581 1288.02 29.6791C1289.81 29.9011 1292.74 29.9011 1294.52 29.6791ZM1606.02 29.691C1608.64 29.485 1606.5 29.316 1601.27 29.316C1596.05 29.316 1593.91 29.485 1596.52 29.691C1599.14 29.897 1603.41 29.897 1606.02 29.691Z" fill="url(#paint1_linear_2_4)"/>
</g>
<defs>
<linearGradient id="paint0_linear_2_4" x1="639" y1="433.704" x2="655" y2="-324.296" gradientUnits="userSpaceOnUse">
<stop stop-color="#30304F"/>
<stop offset="1" stop-color="#343553" stop-opacity="0"/>
</linearGradient>
<linearGradient id="paint1_linear_2_4" x1="639" y1="433.704" x2="655" y2="-324.296" gradientUnits="userSpaceOnUse">
<stop stop-color="#30304F"/>
<stop offset="1" stop-color="#343553" stop-opacity="0"/>
</linearGradient>
</defs>
</svg>
