<svg width="143" height="32" viewBox="0 0 143 32" fill="none" xmlns="http://www.w3.org/2000/svg">
<g clip-path="url(#clip0_2_39)">
<path fill-rule="evenodd" clip-rule="evenodd" d="M98.0642 6.2998C95.1446 6.29983 92.7778 8.64737 92.7778 11.5432V20.4902C92.7778 22.1272 91.4398 23.4543 89.7893 23.4543H79.6135V25.6757H91.716C94.6356 25.6756 97.0024 23.328 97.0024 20.4321V11.4852C97.0024 9.8481 98.3404 8.52103 99.9909 8.52108L110.356 8.52107V6.2998H98.0642Z" fill="white"/>
<path fill-rule="evenodd" clip-rule="evenodd" d="M52.458 6.2998V8.52107H73.7137C75.4078 8.52108 76.7811 9.88324 76.7811 11.5636C76.7811 13.2439 75.4078 14.606 73.7137 14.606H57.7444C54.8248 14.6061 52.458 16.9536 52.458 19.8495V25.6757H56.6826V19.7915C56.6826 18.1545 58.0206 16.8274 59.6711 16.8274H75.6988C78.6297 16.8274 81.0057 14.4707 81.0057 11.5636C81.0057 8.65647 78.6297 6.29983 75.6988 6.2998H52.458Z" fill="white"/>
<path fill-rule="evenodd" clip-rule="evenodd" d="M114.427 6.2998V13.5348C114.427 15.3532 115.913 16.8274 117.747 16.8274H135.435C137.28 16.8274 138.775 18.3109 138.775 20.1408C138.775 21.9708 137.28 23.4543 135.435 23.4543H114.427V25.6757H137.42C140.502 25.6757 143 23.1977 143 20.1409C143 17.0841 140.502 14.606 137.42 14.606H119.986C119.249 14.606 118.652 14.0136 118.652 13.2827V8.52107H142.234V6.2998H114.427Z" fill="white"/>
<path d="M15.6347 0V29.8548L22.4464 32V6.95752C22.4464 5.78729 22.9737 5.0003 23.8242 5.27508C24.936 5.58 25.1523 6.65984 25.1523 7.83248V17.8331C29.4002 19.8662 32.7404 17.8318 32.7404 12.4652C32.7404 6.95752 30.7853 4.51461 25.0186 2.54655C22.7489 1.79211 18.5326 0.53028 15.6347 0Z" fill="white"/>
<path d="M23.7366 27.6383L34.6929 23.7636C35.9347 23.3225 36.1266 22.6958 35.1169 22.3692C34.1084 22.0426 32.281 22.1378 31.0392 22.5777L23.7366 25.1303V21.0712L24.157 20.9314C24.157 20.9314 26.2676 20.189 29.2311 19.8624C32.1983 19.543 35.8314 19.9046 38.6807 20.9796C41.8958 21.9884 42.2566 23.4695 41.4413 24.4903C40.6224 25.5135 38.6236 26.2439 38.6236 26.2439L23.7366 31.5467V27.6383Z" fill="white"/>
<path d="M3.13933 27.2251C-0.158353 26.3032 -0.708778 24.3881 0.79304 23.2818C2.18672 22.2586 4.54881 21.4921 4.54881 21.4921L14.3131 18.0513V21.9729L7.28634 24.4689C6.04333 24.91 5.85621 25.5367 6.86107 25.8608C7.87322 26.1911 9.69825 26.0971 10.9425 25.6536L14.3131 24.4424V27.9542C14.098 27.9904 13.8611 28.0278 13.6423 28.0627C10.2693 28.6087 6.6776 28.3821 3.13933 27.2251Z" fill="white"/>
</g>
<defs>
<clipPath id="clip0_2_39">
<rect width="143" height="32" fill="white"/>
</clipPath>
</defs>
</svg>
