<svg width="279" height="289" viewBox="0 0 279 289" fill="none" xmlns="http://www.w3.org/2000/svg">
<g opacity="0.15">
<path fill-rule="evenodd" clip-rule="evenodd" d="M112.929 19.9286H19.9286V112.929H112.929V19.9286ZM0 0V132.857H132.857V0H0Z" fill="white"/>
<path fill-rule="evenodd" clip-rule="evenodd" d="M212.571 268.371C238.253 268.371 259.071 247.553 259.071 221.871C259.071 196.19 238.253 175.371 212.571 175.371C186.89 175.371 166.071 196.19 166.071 221.871C166.071 247.553 186.89 268.371 212.571 268.371ZM212.571 288.3C249.259 288.3 279 258.559 279 221.871C279 185.184 249.259 155.443 212.571 155.443C175.884 155.443 146.143 185.184 146.143 221.871C146.143 258.559 175.884 288.3 212.571 288.3Z" fill="white"/>
<path fill-rule="evenodd" clip-rule="evenodd" d="M212.571 0L146.143 132.857H279L212.571 0ZM212.571 44.5616L178.388 112.929H246.755L212.571 44.5616Z" fill="white"/>
<path fill-rule="evenodd" clip-rule="evenodd" d="M15.0613 155.443L66.4286 207.548L117.796 155.443L130.974 168.811L79.6073 220.917L132.857 274.932L119.678 288.3L66.4286 234.285L13.1787 288.3L0 274.932L53.2499 220.917L1.88266 168.811L15.0613 155.443Z" fill="white"/>
</g>
</svg>
